<?xml version="1.0" encoding="utf-8"?>
<!-- Generator: Adobe Illustrator 23.0.1, SVG Export Plug-In . SVG Version: 6.00 Build 0)  -->
<svg version="1.1" id="Layer_1" xmlns="http://www.w3.org/2000/svg" xmlns:xlink="http://www.w3.org/1999/xlink" x="0px" y="0px"
	 viewBox="0 0 216 216" style="enable-background:new 0 0 216 216;" xml:space="preserve">
<style type="text/css">
	.Arched_x0020_Green{fill:url(#SVGID_1_);stroke:#FFFFFF;stroke-width:0.25;stroke-miterlimit:1;}
	.st0{fill:#FFFFFF;}
</style>
<linearGradient id="SVGID_1_" gradientUnits="userSpaceOnUse" x1="0" y1="216" x2="0.7071" y2="215.2929">
	<stop  offset="0" style="stop-color:#20AC4B"/>
	<stop  offset="0.9831" style="stop-color:#19361A"/>
</linearGradient>
<g>
	<ellipse class="st0" cx="112.15" cy="112.05" rx="96.39" ry="72.92"/>
	<g>
		<path d="M176.11,77.89H33.95c-0.46,0-0.83-0.37-0.83-0.83c0-0.46,0.37-0.84,0.83-0.84h142.17c0.46,0,0.83,0.38,0.83,0.84
			C176.95,77.52,176.57,77.89,176.11,77.89L176.11,77.89z"/>
	</g>
	<g>
		<path d="M133.94,130.63h3.85c1.24,0,1.88,0.19,2.49,0.73c0.57,0.49,0.83,1.08,0.83,1.81c0,0.68-0.25,1.27-0.68,1.71
			c-0.29,0.28-0.47,0.38-0.93,0.53c1.36,0.41,2.01,1.22,2.01,2.55c0,1.4-0.88,2.68-2.65,2.8c-0.32,0.01-0.75,0.03-1.3,0.03h-3.61
			V130.63z M135.96,132.37v2.33h1.63c0.48,0,0.7-0.03,0.88-0.13c0.28-0.15,0.53-0.64,0.53-1.05c0-0.42-0.23-0.84-0.58-1.02
			c-0.18-0.07-0.39-0.13-0.85-0.13H135.96z M135.99,136.38v2.74h1.75c0.42,0,0.72-0.07,0.95-0.23c0.31-0.23,0.53-0.7,0.53-1.18
			c0-0.58-0.31-1.08-0.74-1.24c-0.25-0.07-0.32-0.09-0.79-0.09H135.99z"/>
		<path d="M151.95,133.49v0.72c0.28-0.38,0.61-0.7,0.98-0.88c0.16-0.07,0.42-0.12,0.64-0.12c0.29,0,0.42,0.03,0.73,0.16l-0.41,1.65
			c-0.19-0.1-0.35-0.15-0.57-0.15c-0.44,0-0.83,0.2-1.2,0.63v5.28h-1.95v-7.29H151.95z"/>
		<path d="M160.21,138.8l0.76,1.17c-0.86,0.7-1.76,1.04-2.81,1.04c-2.14,0-3.53-1.52-3.53-3.86c0-1.34,0.28-2.23,0.93-2.96
			c0.61-0.69,1.36-1,2.35-1c0.86,0,1.68,0.29,2.16,0.79c0.68,0.7,0.99,1.71,0.99,3.27c0,0.16,0,0.22,0,0.45h-4.32v0.06
			c0,1.15,0.57,1.81,1.58,1.81C158.99,139.54,159.61,139.29,160.21,138.8z M156.77,136.25h2.26v-0.09c0-0.55-0.06-0.84-0.23-1.12
			c-0.19-0.29-0.47-0.44-0.86-0.44c-0.74,0-1.17,0.58-1.17,1.62V136.25z"/>
		<path d="M166.54,140.78v-0.52c-0.28,0.26-0.31,0.29-0.45,0.39c-0.37,0.26-0.89,0.41-1.5,0.41c-1.66,0-2.56-0.84-2.56-2.33
			c0-1.75,1.21-2.57,3.58-2.57c0.15,0,0.23,0,0.44,0.02v-0.31c0-0.83-0.16-1.11-0.87-1.11c-0.63,0-1.36,0.31-2.16,0.85l-0.83-1.4
			c0.48-0.31,0.68-0.41,1.21-0.61c0.73-0.31,1.36-0.44,2.04-0.44c1.25,0,2.11,0.47,2.41,1.3c0.1,0.31,0.13,0.54,0.13,1.34
			l-0.04,2.51c0,0.04,0,0.09,0,0.13v2.35L166.54,140.78z M166.02,137.51h-0.09c-1.35,0-1.82,0.25-1.82,1.14
			c0,0.58,0.36,0.98,0.86,0.98c0.37,0,0.73-0.19,1.02-0.51L166.02,137.51z"/>
		<path d="M173.75,140.78v-0.52c-0.48,0.47-1.18,0.71-1.97,0.71c-1.05,0-1.95-0.5-2.2-1.21c-0.12-0.34-0.16-0.73-0.16-1.49v-4.78
			h1.93v4.43c0,0.67,0.04,1.02,0.16,1.22c0.1,0.2,0.4,0.35,0.69,0.35c0.48,0,1.06-0.35,1.21-0.72v-5.29h1.87v7.29H173.75z"/>
	</g>
	<path d="M55.3,99.25c-1.87-1.3-3.84-1.94-5.92-1.94c-2.51,0-4.96,1.15-6.29,2.99c-1.44,1.99-2.08,4.87-2.08,8.91
		c0,4.73,0.43,7.36,1.55,9.25c1.5,2.54,3.95,3.88,7.15,3.88c2.03,0,3.79-0.55,5.6-1.69c0.21-0.15,0.48-0.35,0.75-0.55l2.99,4.69
		c-2.82,2.02-5.86,2.92-9.88,2.92c-5.12,0-9.07-1.54-12.11-4.78c-2.99-3.13-4.48-7.31-4.48-12.39c0-4.33,0.8-7.76,2.51-10.75
		c2.88-5.03,8.21-8.01,14.19-8.01c3.4,0,6.81,0.94,8.9,2.38L55.3,99.25z"/>
	<path d="M79.35,120.06l2.56,3.94c-2.91,2.36-5.96,3.5-9.5,3.5c-7.24,0-11.92-5.12-11.92-13.05c0-4.53,0.94-7.53,3.15-10
		c2.07-2.31,4.58-3.4,7.93-3.4c2.91,0,5.66,0.98,7.29,2.66c2.32,2.36,3.35,5.76,3.35,11.03c0,0.54,0,0.74,0,1.53H67.63v0.2
		c0,3.89,1.92,6.11,5.32,6.11C75.21,122.57,77.33,121.73,79.35,120.06z M67.73,111.44h7.63v-0.29c0-1.87-0.2-2.86-0.79-3.79
		c-0.64-0.98-1.58-1.48-2.91-1.48c-2.51,0-3.94,1.97-3.94,5.47V111.44z"/>
	<path d="M91.27,101.28l0.63,2.77c1.52-1.08,1.82-1.28,2.9-1.87c1.33-0.69,3.05-1.08,4.53-1.08c2.81,0,5.27,1.48,6.05,3.64
		c0.35,0.93,0.49,2.02,0.49,3.6v18.41h-6.5v-16.4c0-2.86-0.49-3.69-2.22-3.69c-1.33,0-3.05,0.89-4.58,2.27v17.82h-6.6v-25.47H91.27z
		"/>
	<path d="M91.91,101.28l0,2.77c1.52-1.08,1.82-1.28,2.9-1.87c1.33-0.69,3.05-1.08,4.53-1.08c2.81,0,5.27,1.48,6.05,3.64
		c0.35,0.93,0.49,2.02,0.49,3.6v18.41h-6.5v-16.4c0-2.86-0.49-3.69-2.22-3.69c-1.33,0-3.05,0.89-4.58,2.27v17.82h-6.6v-25.47H91.91z
		"/>
	<path d="M126.46,107.65c-2.51-1.28-4.33-1.82-6.21-1.82c-1.92,0-3.2,0.98-3.2,2.46c0,1.28,0.84,1.97,3.15,2.56l3.05,0.79
		c3.1,0.79,4.13,1.72,5.02,2.86c0.94,1.18,1.38,2.61,1.38,4.28c0,5.22-4.33,8.76-10.78,8.76c-3.02,0-6.33-0.94-9.91-2.76l2.08-4.97
		c2.02,1.23,5.52,2.86,8.37,2.86c1.87,0,3.35-1.23,3.35-2.86c0-1.72-1.23-2.61-3.89-3.1l-2.95-0.54c-1.68-0.3-3.74-1.48-4.63-2.56
		c-0.89-1.08-1.43-2.9-1.43-4.53c0-4.92,3.89-8.22,9.75-8.22c3.81,0,6.39,1.1,8.62,2.17L126.46,107.65z"/>
	<path d="M147.21,126.75l-0.02-2.77c-1.53,1.08-1.82,1.28-2.9,1.87c-1.33,0.69-3.05,1.08-4.53,1.08c-2.81,0-5.27-1.48-6.06-3.65
		c-0.34-0.93-0.49-2.02-0.49-3.59v-18.42h6.5v16.4c0,2.86,0.49,3.7,2.22,3.7c1.33,0,3.05-0.89,4.58-2.27v-17.83h6.6v25.47H147.21z"
		/>
	<g>
		<path d="M73.23,84.66v6.63c0,3.66-1.77,5.65-5.03,5.65c-3.26,0-4.93-2.09-4.93-5.7v-6.59h-1.5v-1.73h5.07v1.73h-1.5v6.79
			c0,2.4,0.98,3.69,2.9,3.69c1.97,0,2.94-1.25,2.94-3.55v-6.93h-1.5v-1.73h5.06v1.73H73.23"/>
	</g>
	<g>
		<path d="M81.25,96.73v-1.64h1.2v-4.71c0-1.98-0.63-2.54-1.69-2.54c-0.99,0-1.66,0.51-2.25,1.27v5.98h1.21v1.64h-4.45v-1.64h1.2
			v-7.07h-1.2v-1.64h3.23v1.06c0.67-0.79,1.52-1.28,2.75-1.28c2.08,0,3.22,1.16,3.22,4.08v4.85h1.22v1.64H81.25"/>
	</g>
	<g>
		<path d="M88.96,84.64c-0.73,0-1.33-0.59-1.33-1.3c0-0.73,0.59-1.33,1.33-1.33c0.71,0,1.3,0.59,1.3,1.33
			C90.26,84.05,89.67,84.64,88.96,84.64 M86.87,96.73v-1.64h1.28v-7.07h-1.28v-1.64h3.31v8.71h1.28v1.64H86.87z"/>
	</g>
	<g>
		<path d="M97.81,96.47"/>
		<path d="M97.81,96.47c-0.48,0.27-1.15,0.47-1.92,0.47c-1.36,0-2.22-0.89-2.22-2.74v-6.18h-1.4v-1.64h1.4v-2.96l2.03-1.07v4.03
			h2.33v1.64H95.7v5.99c0,0.97,0.26,1.24,0.96,1.24c0.21,0,0.43-0.03,0.62-0.09L97.81,96.47z"/>
	</g>
	<g>
		<path d="M107.42,92.27h-6.39c0.15,1.88,0.94,2.94,2.56,2.94c1.17,0,1.85-0.31,2.78-1.01l0.87,1.39c-1.12,0.92-2.27,1.36-3.77,1.36
			c-2.54,0-4.44-1.95-4.44-5.38c0-3.51,1.75-5.4,4.3-5.4c2.8,0,4.14,2.39,4.14,5.19C107.47,91.72,107.43,92.05,107.42,92.27
			 M103.21,87.84c-1.34,0-2.04,0.98-2.18,2.81h4.4C105.32,89.11,104.79,87.84,103.21,87.84"/>
	</g>
	<g>
		<path d="M115.31,96.73v-1.09c-0.71,0.83-1.46,1.3-2.57,1.3c-2.21,0-3.78-1.62-3.78-5.56c0-3.55,1.73-5.23,3.69-5.23
			c1.24,0,2.01,0.53,2.66,1.22v-3.64h-1.23v-1.63h3.24v12.97h1.1v1.64H115.31 M115.33,89.19c-0.44-0.61-1.3-1.35-2.27-1.35
			c-1.36,0-2.08,1.18-2.08,3.48c0,2.88,0.81,3.95,2.17,3.95c0.83,0,1.38-0.4,2.17-1.32V89.19z"/>
	</g>
	<g>
		<path d="M129.66,96.94c-1.34,0-2.33-0.53-3-1.34v1.12h-1.78v-4.22h1.68c0.49,1.69,1.36,2.67,3.06,2.67c1.51,0,2.33-0.73,2.33-2.07
			c0-1.21-0.38-1.81-2.89-2.53c-2.74-0.77-4.08-1.66-4.08-4.12c0-2.33,1.59-3.75,3.95-3.75c1.58,0,2.46,0.64,2.9,1.34v-1.12h1.78
			v4.22h-1.68c-0.25-1.62-1.16-2.67-2.86-2.67c-1.46,0-1.99,0.75-1.99,1.83c0,1.14,0.75,1.78,2.78,2.35
			c2.76,0.79,4.18,1.74,4.18,4.21C134.04,95.59,132.24,96.94,129.66,96.94"/>
	</g>
	<g>
		<path d="M148.09,96.73V95.6c-0.63,0.81-1.58,1.34-2.8,1.34c-1.79,0-3.31-0.91-3.31-3.45c0-2.31,1.63-3.4,3.82-3.4
			c0.99,0,1.72,0.2,2.29,0.5v-0.97c0-1.13-0.67-1.75-1.88-1.75c-1,0-1.79,0.2-2.56,0.65l-0.75-1.44c0.95-0.61,2.04-0.93,3.43-0.93
			c2.18,0,3.73,1.12,3.73,3.47v5.46h1.12v1.64H148.09 M148.09,92.17c-0.51-0.25-1.08-0.45-2.29-0.45c-1.12,0-1.9,0.64-1.9,1.72
			c0,1.26,0.58,1.81,1.76,1.81c0.99,0,1.86-0.55,2.42-1.3V92.17z"/>
	</g>
	<g>
		<path d="M166.86,92.27h-6.39c0.16,1.88,0.95,2.94,2.56,2.94c1.17,0,1.86-0.31,2.79-1.01l0.87,1.39c-1.13,0.92-2.28,1.36-3.77,1.36
			c-2.54,0-4.44-1.95-4.44-5.38c0-3.51,1.76-5.4,4.3-5.4c2.8,0,4.14,2.39,4.14,5.19C166.91,91.72,166.87,92.05,166.86,92.27
			 M162.66,87.84c-1.34,0-2.03,0.98-2.17,2.81h4.39C164.77,89.11,164.23,87.84,162.66,87.84"/>
	</g>
	<g>
		<path d="M172.59,96.88c-1.2,0-1.8-0.35-2.35-0.98v0.83h-1.58V93.5h1.4c0.63,1.18,1.26,1.77,2.45,1.77c0.85,0,1.3-0.5,1.3-1.21
			c0-0.76-0.33-1.2-1.79-1.61c-2.52-0.73-3.38-1.49-3.38-3.36c0-1.5,1.09-2.88,3.16-2.88c0.92,0,1.62,0.22,2.17,0.79v-0.63h1.58
			v3.24h-1.41c-0.46-1.18-1.1-1.82-2.23-1.82c-0.86,0-1.26,0.45-1.26,1.15c0,0.63,0.24,1.08,1.79,1.56
			c2.43,0.75,3.37,1.46,3.37,3.41C175.82,95.55,174.58,96.88,172.59,96.88"/>
	</g>
	<path d="M147.04,140.78v-0.52c-0.48,0.47-1.18,0.71-1.97,0.71c-1.05,0-1.95-0.5-2.2-1.21c-0.12-0.34-0.16-0.73-0.16-1.49v-4.78
		h1.92v4.43c0,0.67,0.04,1.02,0.16,1.22c0.1,0.2,0.39,0.35,0.69,0.35c0.48,0,1.06-0.35,1.21-0.72v-5.29h1.87v7.29H147.04z"/>
	<path d="M173.74,107.65c-2.51-1.28-4.34-1.82-6.21-1.82c-1.92,0-3.2,0.98-3.2,2.46c0,1.28,0.84,1.97,3.15,2.56l3.05,0.79
		c3.1,0.79,4.13,1.72,5.02,2.86c0.94,1.18,1.38,2.61,1.38,4.28c0,5.22-4.33,8.76-10.78,8.76c-3.02,0-6.33-0.94-9.91-2.76l2.08-4.97
		c2.02,1.23,5.51,2.86,8.37,2.86c1.87,0,3.35-1.23,3.35-2.86c0-1.72-1.23-2.61-3.89-3.1l-2.96-0.54c-1.67-0.3-3.74-1.48-4.63-2.56
		c-0.89-1.08-1.43-2.9-1.43-4.53c0-4.92,3.89-8.22,9.75-8.22c3.81,0,6.39,1.1,8.61,2.17L173.74,107.65z"/>
	<g>
		<path d="M36.38,134.01h89.76c1.87,0,3.39,1.51,3.39,3.38c0,1.87-1.52,3.38-3.39,3.38H36.38c-1.87,0-3.39-1.51-3.39-3.38
			C32.99,135.52,34.51,134.01,36.38,134.01L36.38,134.01z"/>
	</g>
	<path d="M140.72,96.47c-0.48,0.27-1.14,0.47-1.92,0.47c-1.36,0-2.22-0.89-2.22-2.74v-6.18h-1.4v-1.64h1.4v-2.96l2.03-1.07v4.03
		h2.33v1.64h-2.33v5.99c0,0.97,0.25,1.24,0.97,1.24c0.21,0,0.42-0.03,0.62-0.09L140.72,96.47z"/>
	<path d="M157.23,96.47c-0.48,0.27-1.14,0.47-1.91,0.47c-1.36,0-2.22-0.89-2.22-2.74v-6.18h-1.4v-1.64h1.4v-2.96l2.03-1.07v4.03
		h2.33v1.64h-2.33v5.99c0,0.97,0.26,1.24,0.96,1.24c0.21,0,0.43-0.03,0.62-0.09L157.23,96.47z"/>
	<g>
		<path d="M178.83,87.92V85.4h-0.94v-0.34h2.27v0.34h-0.95v2.53H178.83z"/>
		<path d="M180.53,87.92v-2.86h0.57l0.68,2.03c0.06,0.19,0.11,0.33,0.14,0.42c0.03-0.1,0.08-0.26,0.15-0.46l0.69-1.99h0.51v2.86
			h-0.37v-2.4l-0.83,2.4h-0.34l-0.83-2.44v2.44H180.53z"/>
	</g>
</g>
</svg>
