<?xml version="1.0" encoding="utf-8"?>
<!-- Generator: Adobe Illustrator 23.0.0, SVG Export Plug-In . SVG Version: 6.00 Build 0)  -->
<svg version="1.1" id="Layer_1" xmlns="http://www.w3.org/2000/svg" xmlns:xlink="http://www.w3.org/1999/xlink" x="0px" y="0px"
	 width="458.3px" height="112.9px" viewBox="0 0 458.3 112.9" style="enable-background:new 0 0 458.3 112.9;" xml:space="preserve"
	>
<style type="text/css">
	.st0{fill:#FFFFFF;}
	.st1{fill:#7DABDB;}
</style>
<g>
	<g>
		<path class="st0" d="M162.8,19.6V66c0,7.1-0.6,12.5-1.9,16.3c-1.3,3.7-3.8,6.7-7.5,8.9c-3.7,2.2-8.7,3.3-15.1,3.3
			c-5.6,0-10.6-0.6-15.1-1.8V75c3.2,0.9,6.1,1.3,8.9,1.3c3.2,0,5.5-0.7,6.9-2.2c1.4-1.5,2.1-4.2,2.1-8.1V19.6H162.8z"/>
		<path class="st0" d="M200.9,94.4c-9.1,0-16.3-2.8-21.7-8.5c-5.4-5.7-8-12.3-8-19.9c0-8.2,2.8-15,8.4-20.5s12.9-8.2,21.8-8.2
			c9,0,16.3,2.7,21.8,8.1c5.5,5.4,8.2,12.2,8.2,20.3c0,8.2-2.8,15-8.3,20.5C217.5,91.6,210.2,94.4,200.9,94.4z M201.3,81.3
			c3.3,0,5.4-1.7,6.1-5.2c0.7-3.5,1.1-7.1,1.1-10.9c0-5.1-0.5-8.9-1.6-11.1c-1-2.3-2.9-3.4-5.6-3.4c-2.5,0-4.3,1.2-5.5,3.5
			c-1.2,2.3-1.7,6.2-1.7,11.5c0,6.3,0.6,10.5,1.8,12.5C197.1,80.3,198.9,81.3,201.3,81.3z"/>
		<path class="st0" d="M252,93.3h-12.1V19.6h21.2v25.3c2.9-5.1,7.6-7.7,14.1-7.7c4.5,0,8.4,1.2,11.5,3.6c3.2,2.4,5.5,5.8,7.1,10.2
			c1.5,4.4,2.3,9,2.3,13.9c0,8.9-2,16-5.9,21.4c-4,5.4-9.9,8.1-17.7,8.1c-7.7,0-13.6-2.9-17.6-8.7C253.7,87.9,252.8,90.4,252,93.3z
			 M261.1,72.8c0,5.4,2.1,8.1,6.3,8.1c2.3,0,4-1,5.2-2.9c1.2-2,1.8-6,1.8-12.1c0-6.7-0.7-10.8-2.1-12.5c-1.4-1.7-3.1-2.6-5.1-2.6
			c-1.6,0-3,0.6-4.3,1.8c-1.3,1.2-1.9,3-1.9,5.3V72.8z"/>
		<path class="st0" d="M371.9,93.3h-24.7l-12.7-27.8l-7.6,10.8v17h-21.3V19.6h21.3V50l20.3-30.5h20.3l-18.6,27L371.9,93.3z"/>
		<path class="st0" d="M398.7,17.3v17.1h-21.5V17.3H398.7z M398.7,38.4v54.9h-21.5V38.4H398.7z"/>
		<path class="st0" d="M444,38.4v14h-11v20.2c0,2.8,0.5,4.4,1.6,4.9c1,0.5,2.1,0.8,3.2,0.8c1.7,0,3.8-0.3,6.2-0.9v15.3
			c-4.2,0.8-8.4,1.2-12.5,1.2c-6.6,0-11.5-1.4-14.6-4.3c-3.1-2.8-4.7-7.4-4.7-13.6l0.1-6.4V52.3H404v-14h8.2l0.3-17.9l20.5-0.3v18.2
			H444z"/>
	</g>
	<g>
		<path class="st1" d="M64.7,29.3c-0.1,0-0.1,0-0.2,0c-0.1,0-0.1,0-0.2,0H64.7z"/>
		<path class="st1" d="M57.3,38c0.7,0,1.3,0.1,2,0.2c2.1,0.5,3.1,2.5,2.4,4.8c-0.5,1.7-1,3.4-1.5,5.1c-0.1,0.4-0.3,0.5-0.6,0.6
			c-1.2,0.3-2.4,0.7-3.6,1c-1.7,0.5-3.5,1-5.3,1.5c0.2,0.2,0.4,0.3,0.5,0.5c2.1,1.9,4.3,3.7,6.4,5.6c0.4,0.3,0.7,0.4,1.2,0.3
			c2.6-0.4,5.2-0.9,7.8-1.3c0.4-0.1,0.6-0.2,0.7-0.6c1.4-3.2,2.7-6.4,4.1-9.6c0.1-0.2,0.2-0.3,0.3-0.6c0.1,0.2,0.2,0.4,0.3,0.6
			c1.4,3.2,2.8,6.4,4.1,9.6c0.1,0.2,0.3,0.5,0.5,0.5c2.7,0.5,5.4,0.9,8.1,1.4c0.3,0.1,0.6,0,0.9-0.2c2.2-2,4.4-3.9,6.6-5.9
			c0.1-0.1,0.2-0.2,0.3-0.4c-0.1,0-0.2-0.1-0.2-0.1c-2.8-0.8-5.7-1.7-8.5-2.5c-0.4-0.1-0.5-0.3-0.7-0.7c-0.3-1.2-0.7-2.4-1.1-3.6
			c-1.5-5-3.1-10-5.3-14.8c-0.5-1-1.1-2-1.7-2.9c-0.5-0.8-1.1-1.1-2-1.1c-2.7,0-5.3,0-8,0c-1.3,0-2.3,0.5-3.1,1.6
			c-0.2,0.3-0.4,0.6-0.6,0.9c-1,1.5-2.3,2.3-3.9,2.4c-0.6,0-1.2,0-1.8,0.2c-3,0.6-4.7,3.9-5.2,7.3c0.2,0,0.3,0,0.4,0
			C53.1,38,55.2,37.9,57.3,38z M64.7,29.3h-0.4c0.1,0,0.1,0,0.2,0C64.6,29.3,64.6,29.3,64.7,29.3z"/>
		<path class="st1" d="M79.6,79.4c-0.2,0-0.5,0.1-0.7,0.2c-1.2,0.9-2.4,1.8-3.7,2.7c-1.2,0.9-2.4,1.8-3.6,2.7
			c-2.4-1.8-4.8-3.6-7.2-5.3c-0.2-0.2-0.6-0.3-0.9-0.3c-8.1,0-16.3,0-24.4,0c-0.2,0-0.3,0-0.5,0c0,0.1,0,0.1,0,0.2
			c0,0.1,0.1,0.1,0.1,0.2c2.6,3.5,5.5,6.7,9,9c1.8,1.1,3.7,1.9,5.8,1.9c12,0,24,0,35.9,0c0.6,0,1.2-0.1,1.9-0.2
			c1.9-0.4,3.6-1.4,5.3-2.5c2.6-1.9,4.7-4.2,6.8-6.8c0.4-0.5,0.8-1,1.2-1.6c-0.3,0-0.4,0-0.5,0C96,79.4,87.8,79.4,79.6,79.4z"/>
		<path class="st1" d="M44.6,62.7c0.2,0,0.4,0,0.6,0c0.8-3.7,1.5-7.4,2.3-11.1c-10.4,0-20.6,0-31,0c0,0.1,0,0.2,0,0.3
			c1.2,2.9,2.6,5.7,4.7,7.9c1.9,2,4.2,3.1,6.8,3C33.6,62.7,39.1,62.7,44.6,62.7z"/>
		<path class="st1" d="M126.8,51.6c-10.3,0-20.6,0-30.9,0c0.8,3.7,1.5,7.4,2.3,11.1c0.2,0,0.4,0,0.6,0c5.6,0,11.1,0,16.7,0
			c2.4,0,4.5-0.9,6.4-2.6C124,57.8,125.6,54.9,126.8,51.6C126.8,51.7,126.8,51.7,126.8,51.6z"/>
		<path class="st1" d="M59.9,76.8c0.2,0,0.3,0,0.6,0c-0.2-0.2-0.3-0.3-0.4-0.4c-4.7-3.5-9.3-7-14-10.5c-0.3-0.2-0.6-0.3-0.9-0.3
			c-6.1,0-12.2,0-18.3,0c-0.2,0-0.3,0-0.5,0c0.1,0.2,0.1,0.4,0.2,0.5c1.7,3.1,3.7,5.8,6.2,8c2,1.7,4.3,2.7,6.9,2.7
			C46.4,76.8,53.1,76.8,59.9,76.8z"/>
		<path class="st1" d="M98,65.6c-0.2,0-0.5,0.1-0.7,0.3c-2.8,2.1-5.6,4.2-8.4,6.3c-2,1.5-4,3-6,4.5c0,0,0,0.1,0,0.1
			c0.2,0,0.3,0,0.5,0c6.8,0,13.6,0,20.4,0c2.1,0,4-0.7,5.8-2c3.1-2.3,5.3-5.4,7.2-8.9c0-0.1,0.1-0.2,0.1-0.3c-0.1,0-0.2,0-0.3,0
			C110.5,65.6,104.2,65.6,98,65.6z"/>
		<path class="st1" d="M47.4,64.5c5,3.5,10.1,7,15.1,10.5c0.1,0.1,0.3,0.2,0.4,0.3c0-0.1,0.1-0.2,0.1-0.2c0.4-2.7,0.8-5.3,1.2-8
			c0.1-0.5,0-0.8-0.4-1.1c-3.4-3.1-6.8-6.2-10.3-9.3c-1.4-1.3-2.8-2.5-4.2-3.8c-0.8,3.8-1.5,7.4-2.3,11.1
			C46.9,64.3,47.2,64.4,47.4,64.5z"/>
		<path class="st1" d="M79.2,66.8c0.1,1,0.3,2,0.4,3.1c0.3,1.8,0.5,3.5,0.8,5.3c0.1-0.1,0.2-0.1,0.3-0.2c5.1-3.7,10.3-7.3,15.5-11
			c0.3-0.2,0.3-0.4,0.2-0.7c-0.4-1.9-0.8-3.9-1.3-5.8c-0.3-1.5-0.7-3.1-1-4.7c-0.1,0-0.1,0.1-0.2,0.1c-4.9,4.4-9.7,8.9-14.6,13.3
			C79.3,66.3,79.2,66.6,79.2,66.8z"/>
		<path class="st1" d="M71.5,72.8c-2.2,1.3-4.3,2.6-6.5,4c0.2,0.1,0.3,0.2,0.4,0.3c1.8,1.2,3.6,2.4,5.3,3.7c0.7,0.5,1.2,0.5,2,0
			c1.8-1.4,3.7-2.7,5.7-4.1c-0.1-0.1-0.1-0.1-0.2-0.2c-2.1-1.3-4.2-2.5-6.3-3.8C71.8,72.7,71.6,72.7,71.5,72.8z"/>
	</g>
</g>
</svg>
