<?xml version="1.0" encoding="UTF-8"?>
<svg enable-background="new 0 0 340.3 112.9" version="1.1" viewBox="0 0 340.3 112.9" xml:space="preserve" xmlns="http://www.w3.org/2000/svg">
<style type="text/css">
	.st0{fill:#FFFFFF;}
</style>
	<path class="st0" d="m48.8 19.2v46.4c0 7.1-0.6 12.5-1.9 16.3-1.3 3.7-3.8 6.7-7.5 8.9s-8.7 3.3-15.1 3.3c-5.6 0-10.6-0.6-15.1-1.8v-17.7c3.2 0.9 6.1 1.3 8.9 1.3 3.2 0 5.5-0.7 6.9-2.2s2.1-4.2 2.1-8.1v-46.4h21.7z"/>
	<path class="st0" d="m86.9 94c-9.1 0-16.3-2.8-21.7-8.5s-8-12.3-8-19.9c0-8.2 2.8-15 8.4-20.5s12.9-8.2 21.8-8.2c9 0 16.3 2.7 21.8 8.1s8.2 12.2 8.2 20.3c0 8.2-2.8 15-8.3 20.5-5.6 5.5-12.9 8.2-22.2 8.2zm0.4-13.1c3.3 0 5.4-1.7 6.1-5.2s1.1-7.1 1.1-10.9c0-5.1-0.5-8.9-1.6-11.1-1-2.3-2.9-3.4-5.6-3.4-2.5 0-4.3 1.2-5.5 3.5s-1.7 6.2-1.7 11.5c0 6.3 0.6 10.5 1.8 12.5 1.2 2.1 3 3.1 5.4 3.1z"/>
	<path class="st0" d="m138 92.9h-12.1v-73.7h21.2v25.3c2.9-5.1 7.6-7.7 14.1-7.7 4.5 0 8.4 1.2 11.5 3.6 3.2 2.4 5.5 5.8 7.1 10.2 1.5 4.4 2.3 9 2.3 13.9 0 8.9-2 16-5.9 21.4-4 5.4-9.9 8.1-17.7 8.1-7.7 0-13.6-2.9-17.6-8.7-1.2 2.2-2.1 4.7-2.9 7.6zm9.1-20.5c0 5.4 2.1 8.1 6.3 8.1 2.3 0 4-1 5.2-2.9 1.2-2 1.8-6 1.8-12.1 0-6.7-0.7-10.8-2.1-12.5s-3.1-2.6-5.1-2.6c-1.6 0-3 0.6-4.3 1.8s-1.9 3-1.9 5.3v14.9h0.1z"/>
	<path class="st0" d="M257.9,92.9h-24.7L220.4,65l-7.6,10.8v17h-21.3V19.2h21.3v30.5l20.3-30.5h20.3l-18.6,27L257.9,92.9z"/>
	<path class="st0" d="M284.7,16.9V34h-21.5V16.9H284.7z M284.7,38v54.9h-21.5V38H284.7z"/>
	<path class="st0" d="M330,38v14h-11v20.2c0,2.8,0.5,4.4,1.6,4.9c1,0.5,2.1,0.8,3.2,0.8c1.7,0,3.8-0.3,6.2-0.9v15.3   c-4.2,0.8-8.4,1.2-12.5,1.2c-6.6,0-11.5-1.4-14.6-4.3c-3.1-2.8-4.7-7.4-4.7-13.6l0.1-6.4V52H290V38h8.2l0.3-17.9l20.5-0.3V38H330z"/>
</svg>
