<svg version="1.1" id="Layer_1" xmlns="http://www.w3.org/2000/svg" x="0" y="0" viewBox="0 0 216 216" xml:space="preserve"><style/><linearGradient id="SVGID_1_" gradientUnits="userSpaceOnUse" x1="0" y1="216" x2=".707" y2="215.293"><stop offset="0" stop-color="#20ac4b"/><stop offset=".983" stop-color="#19361a"/></linearGradient><ellipse cx="112.15" cy="112.05" rx="96.39" ry="72.92" fill="#fff"/><path d="M176.11 77.89H33.95c-.46 0-.83-.37-.83-.83 0-.46.37-.84.83-.84h142.17c.46 0 .83.38.83.84 0 .46-.38.83-.84.83zm-42.17 52.74h3.85c1.24 0 1.88.19 2.49.73.57.49.83 1.08.83 1.81 0 .68-.25 1.27-.68 1.71-.29.28-.47.38-.93.53 1.36.41 2.01 1.22 2.01 2.55 0 1.4-.88 2.68-2.65 2.8-.32.01-.75.03-1.3.03h-3.61v-10.16zm2.02 1.74v2.33h1.63c.48 0 .7-.03.88-.13.28-.15.53-.64.53-1.05 0-.42-.23-.84-.58-1.02-.18-.07-.39-.13-.85-.13h-1.61zm.03 4.01v2.74h1.75c.42 0 .72-.07.95-.23.31-.23.53-.7.53-1.18 0-.58-.31-1.08-.74-1.24-.25-.07-.32-.09-.79-.09h-1.7zm15.96-2.89v.72c.28-.38.61-.7.98-.88.16-.07.42-.12.64-.12.29 0 .42.03.73.16l-.41 1.65c-.19-.1-.35-.15-.57-.15-.44 0-.83.2-1.2.63v5.28h-1.95v-7.29h1.78zm8.26 5.31l.76 1.17c-.86.7-1.76 1.04-2.81 1.04-2.14 0-3.53-1.52-3.53-3.86 0-1.34.28-2.23.93-2.96.61-.69 1.36-1 2.35-1 .86 0 1.68.29 2.16.79.68.7.99 1.71.99 3.27v.45h-4.32v.06c0 1.15.57 1.81 1.58 1.81.67-.03 1.29-.28 1.89-.77zm-3.44-2.55h2.26v-.09c0-.55-.06-.84-.23-1.12-.19-.29-.47-.44-.86-.44-.74 0-1.17.58-1.17 1.62v.03zm9.77 4.53v-.52c-.28.26-.31.29-.45.39-.37.26-.89.41-1.5.41-1.66 0-2.56-.84-2.56-2.33 0-1.75 1.21-2.57 3.58-2.57.15 0 .23 0 .44.02v-.31c0-.83-.16-1.11-.87-1.11-.63 0-1.36.31-2.16.85l-.83-1.4c.48-.31.68-.41 1.21-.61.73-.31 1.36-.44 2.04-.44 1.25 0 2.11.47 2.41 1.3.1.31.13.54.13 1.34l-.04 2.51v2.48l-1.4-.01zm-.52-3.27h-.09c-1.35 0-1.82.25-1.82 1.14 0 .58.36.98.86.98.37 0 .73-.19 1.02-.51l.03-1.61zm7.73 3.27v-.52c-.48.47-1.18.71-1.97.71-1.05 0-1.95-.5-2.2-1.21-.12-.34-.16-.73-.16-1.49v-4.78h1.93v4.43c0 .67.04 1.02.16 1.22.1.2.4.35.69.35.48 0 1.06-.35 1.21-.72v-5.29h1.87v7.29h-1.53zM55.3 99.25c-1.87-1.3-3.84-1.94-5.92-1.94-2.51 0-4.96 1.15-6.29 2.99-1.44 1.99-2.08 4.87-2.08 8.91 0 4.73.43 7.36 1.55 9.25 1.5 2.54 3.95 3.88 7.15 3.88 2.03 0 3.79-.55 5.6-1.69.21-.15.48-.35.75-.55l2.99 4.69c-2.82 2.02-5.86 2.92-9.88 2.92-5.12 0-9.07-1.54-12.11-4.78-2.99-3.13-4.48-7.31-4.48-12.39 0-4.33.8-7.76 2.51-10.75 2.88-5.03 8.21-8.01 14.19-8.01 3.4 0 6.81.94 8.9 2.38l-2.88 5.09zm24.05 20.81l2.56 3.94c-2.91 2.36-5.96 3.5-9.5 3.5-7.24 0-11.92-5.12-11.92-13.05 0-4.53.94-7.53 3.15-10 2.07-2.31 4.58-3.4 7.93-3.4 2.91 0 5.66.98 7.29 2.66 2.32 2.36 3.35 5.76 3.35 11.03v1.53H67.63v.2c0 3.89 1.92 6.11 5.32 6.11 2.26-.01 4.38-.85 6.4-2.52zm-11.62-8.62h7.63v-.29c0-1.87-.2-2.86-.79-3.79-.64-.98-1.58-1.48-2.91-1.48-2.51 0-3.94 1.97-3.94 5.47v.09zm23.54-10.16l.63 2.77c1.52-1.08 1.82-1.28 2.9-1.87 1.33-.69 3.05-1.08 4.53-1.08 2.81 0 5.27 1.48 6.05 3.64.35.93.49 2.02.49 3.6v18.41h-6.5v-16.4c0-2.86-.49-3.69-2.22-3.69-1.33 0-3.05.89-4.58 2.27v17.82h-6.6v-25.47h5.3z"/><path d="M91.91 101.28v2.77c1.52-1.08 1.82-1.28 2.9-1.87 1.33-.69 3.05-1.08 4.53-1.08 2.81 0 5.27 1.48 6.05 3.64.35.93.49 2.02.49 3.6v18.41h-6.5v-16.4c0-2.86-.49-3.69-2.22-3.69-1.33 0-3.05.89-4.58 2.27v17.82h-6.6v-25.47h5.93zm34.55 6.37c-2.51-1.28-4.33-1.82-6.21-1.82-1.92 0-3.2.98-3.2 2.46 0 1.28.84 1.97 3.15 2.56l3.05.79c3.1.79 4.13 1.72 5.02 2.86.94 1.18 1.38 2.61 1.38 4.28 0 5.22-4.33 8.76-10.78 8.76-3.02 0-6.33-.94-9.91-2.76l2.08-4.97c2.02 1.23 5.52 2.86 8.37 2.86 1.87 0 3.35-1.23 3.35-2.86 0-1.72-1.23-2.61-3.89-3.1l-2.95-.54c-1.68-.3-3.74-1.48-4.63-2.56-.89-1.08-1.43-2.9-1.43-4.53 0-4.92 3.89-8.22 9.75-8.22 3.81 0 6.39 1.1 8.62 2.17l-1.77 4.62zm20.75 19.1l-.02-2.77c-1.53 1.08-1.82 1.28-2.9 1.87-1.33.69-3.05 1.08-4.53 1.08-2.81 0-5.27-1.48-6.06-3.65-.34-.93-.49-2.02-.49-3.59v-18.42h6.5v16.4c0 2.86.49 3.7 2.22 3.7 1.33 0 3.05-.89 4.58-2.27v-17.83h6.6v25.47h-5.9zM73.23 84.66v6.63c0 3.66-1.77 5.65-5.03 5.65-3.26 0-4.93-2.09-4.93-5.7v-6.59h-1.5v-1.73h5.07v1.73h-1.5v6.79c0 2.4.98 3.69 2.9 3.69 1.97 0 2.94-1.25 2.94-3.55v-6.93h-1.5v-1.73h5.06v1.73h-1.51m8.02 12.08v-1.64h1.2v-4.71c0-1.98-.63-2.54-1.69-2.54-.99 0-1.66.51-2.25 1.27v5.98h1.21v1.64h-4.45v-1.64h1.2v-7.07h-1.2v-1.64h3.23v1.06c.67-.79 1.52-1.28 2.75-1.28 2.08 0 3.22 1.16 3.22 4.08v4.85h1.22v1.64h-4.44m7.71-12.09c-.73 0-1.33-.59-1.33-1.3 0-.73.59-1.33 1.33-1.33.71 0 1.3.59 1.3 1.33 0 .71-.59 1.3-1.3 1.3m-2.09 12.09v-1.64h1.28v-7.07h-1.28v-1.64h3.31v8.71h1.28v1.64h-4.59zm10.94-.26c-.48.27-1.15.47-1.92.47-1.36 0-2.22-.89-2.22-2.74v-6.18h-1.4v-1.64h1.4v-2.96l2.03-1.07v4.03h2.33v1.64H95.7v5.99c0 .97.26 1.24.96 1.24.21 0 .43-.03.62-.09l.53 1.31zm9.61-4.2h-6.39c.15 1.88.94 2.94 2.56 2.94 1.17 0 1.85-.31 2.78-1.01l.87 1.39c-1.12.92-2.27 1.36-3.77 1.36-2.54 0-4.44-1.95-4.44-5.38 0-3.51 1.75-5.4 4.3-5.4 2.8 0 4.14 2.39 4.14 5.19 0 .36-.04.69-.05.91m-4.21-4.43c-1.34 0-2.04.98-2.18 2.81h4.4c-.11-1.54-.64-2.81-2.22-2.81m12.1 8.89v-1.09c-.71.83-1.46 1.3-2.57 1.3-2.21 0-3.78-1.62-3.78-5.56 0-3.55 1.73-5.23 3.69-5.23 1.24 0 2.01.53 2.66 1.22v-3.64h-1.23V82.1h3.24v12.97h1.1v1.64h-3.11m.02-7.52c-.44-.61-1.3-1.35-2.27-1.35-1.36 0-2.08 1.18-2.08 3.48 0 2.88.81 3.95 2.17 3.95.83 0 1.38-.4 2.17-1.32v-4.76zm14.33 7.75c-1.34 0-2.33-.53-3-1.34v1.12h-1.78V92.5h1.68c.49 1.69 1.36 2.67 3.06 2.67 1.51 0 2.33-.73 2.33-2.07 0-1.21-.38-1.81-2.89-2.53-2.74-.77-4.08-1.66-4.08-4.12 0-2.33 1.59-3.75 3.95-3.75 1.58 0 2.46.64 2.9 1.34v-1.12h1.78v4.22h-1.68c-.25-1.62-1.16-2.67-2.86-2.67-1.46 0-1.99.75-1.99 1.83 0 1.14.75 1.78 2.78 2.35 2.76.79 4.18 1.74 4.18 4.21 0 2.73-1.8 4.08-4.38 4.08m18.43-.21V95.6c-.63.81-1.58 1.34-2.8 1.34-1.79 0-3.31-.91-3.31-3.45 0-2.31 1.63-3.4 3.82-3.4.99 0 1.72.2 2.29.5v-.97c0-1.13-.67-1.75-1.88-1.75-1 0-1.79.2-2.56.65l-.75-1.44c.95-.61 2.04-.93 3.43-.93 2.18 0 3.73 1.12 3.73 3.47v5.46h1.12v1.64h-3.09m0-4.55c-.51-.25-1.08-.45-2.29-.45-1.12 0-1.9.64-1.9 1.72 0 1.26.58 1.81 1.76 1.81.99 0 1.86-.55 2.42-1.3v-1.78zm18.77.1h-6.39c.16 1.88.95 2.94 2.56 2.94 1.17 0 1.86-.31 2.79-1.01l.87 1.39c-1.13.92-2.28 1.36-3.77 1.36-2.54 0-4.44-1.95-4.44-5.38 0-3.51 1.76-5.4 4.3-5.4 2.8 0 4.14 2.39 4.14 5.19-.01.36-.05.69-.06.91m-4.2-4.43c-1.34 0-2.03.98-2.17 2.81h4.39c-.11-1.54-.65-2.81-2.22-2.81m9.93 9.04c-1.2 0-1.8-.35-2.35-.98v.83h-1.58V93.5h1.4c.63 1.18 1.26 1.77 2.45 1.77.85 0 1.3-.5 1.3-1.21 0-.76-.33-1.2-1.79-1.61-2.52-.73-3.38-1.49-3.38-3.36 0-1.5 1.09-2.88 3.16-2.88.92 0 1.62.22 2.17.79v-.63h1.58v3.24h-1.41c-.46-1.18-1.1-1.82-2.23-1.82-.86 0-1.26.45-1.26 1.15 0 .63.24 1.08 1.79 1.56 2.43.75 3.37 1.46 3.37 3.41.01 1.64-1.23 2.97-3.22 2.97m-25.55 43.9v-.52c-.48.47-1.18.71-1.97.71-1.05 0-1.95-.5-2.2-1.21-.12-.34-.16-.73-.16-1.49v-4.78h1.92v4.43c0 .67.04 1.02.16 1.22.1.2.39.35.69.35.48 0 1.06-.35 1.21-.72v-5.29h1.87v7.29h-1.52zm26.7-33.13c-2.51-1.28-4.34-1.82-6.21-1.82-1.92 0-3.2.98-3.2 2.46 0 1.28.84 1.97 3.15 2.56l3.05.79c3.1.79 4.13 1.72 5.02 2.86.94 1.18 1.38 2.61 1.38 4.28 0 5.22-4.33 8.76-10.78 8.76-3.02 0-6.33-.94-9.91-2.76l2.08-4.97c2.02 1.23 5.51 2.86 8.37 2.86 1.87 0 3.35-1.23 3.35-2.86 0-1.72-1.23-2.61-3.89-3.1l-2.96-.54c-1.67-.3-3.74-1.48-4.63-2.56-.89-1.08-1.43-2.9-1.43-4.53 0-4.92 3.89-8.22 9.75-8.22 3.81 0 6.39 1.1 8.61 2.17l-1.75 4.62zM36.38 134.01h89.76c1.87 0 3.39 1.51 3.39 3.38 0 1.87-1.52 3.38-3.39 3.38H36.38c-1.87 0-3.39-1.51-3.39-3.38 0-1.87 1.52-3.38 3.39-3.38zm104.34-37.54c-.48.27-1.14.47-1.92.47-1.36 0-2.22-.89-2.22-2.74v-6.18h-1.4v-1.64h1.4v-2.96l2.03-1.07v4.03h2.33v1.64h-2.33v5.99c0 .97.25 1.24.97 1.24.21 0 .42-.03.62-.09l.52 1.31zm16.51 0c-.48.27-1.14.47-1.91.47-1.36 0-2.22-.89-2.22-2.74v-6.18h-1.4v-1.64h1.4v-2.96l2.03-1.07v4.03h2.33v1.64h-2.33v5.99c0 .97.26 1.24.96 1.24.21 0 .43-.03.62-.09l.52 1.31zm21.6-8.55V85.4h-.94v-.34h2.27v.34h-.95v2.53h-.38zm1.7 0v-2.86h.57l.68 2.03c.06.19.11.33.14.42.03-.1.08-.26.15-.46l.69-1.99h.51v2.86h-.37v-2.4l-.83 2.4h-.34l-.83-2.44v2.44h-.37z"/></svg>