<svg version="1.1" id="Layer_1" xmlns="http://www.w3.org/2000/svg" x="0" y="0" width="458.3" height="112.9" xml:space="preserve"><style>.st1{fill:#7dabdb}</style><path d="M162.8 19.6V66c0 7.1-.6 12.5-1.9 16.3-1.3 3.7-3.8 6.7-7.5 8.9s-8.7 3.3-15.1 3.3c-5.6 0-10.6-.6-15.1-1.8V75c3.2.9 6.1 1.3 8.9 1.3 3.2 0 5.5-.7 6.9-2.2 1.4-1.5 2.1-4.2 2.1-8.1V19.6h21.7zm38.1 74.8c-9.1 0-16.3-2.8-21.7-8.5-5.4-5.7-8-12.3-8-19.9 0-8.2 2.8-15 8.4-20.5s12.9-8.2 21.8-8.2c9 0 16.3 2.7 21.8 8.1 5.5 5.4 8.2 12.2 8.2 20.3 0 8.2-2.8 15-8.3 20.5-5.6 5.4-12.9 8.2-22.2 8.2zm.4-13.1c3.3 0 5.4-1.7 6.1-5.2.7-3.5 1.1-7.1 1.1-10.9 0-5.1-.5-8.9-1.6-11.1-1-2.3-2.9-3.4-5.6-3.4-2.5 0-4.3 1.2-5.5 3.5-1.2 2.3-1.7 6.2-1.7 11.5 0 6.3.6 10.5 1.8 12.5 1.2 2.1 3 3.1 5.4 3.1zm50.7 12h-12.1V19.6h21.2v25.3c2.9-5.1 7.6-7.7 14.1-7.7 4.5 0 8.4 1.2 11.5 3.6 3.2 2.4 5.5 5.8 7.1 10.2 1.5 4.4 2.3 9 2.3 13.9 0 8.9-2 16-5.9 21.4-4 5.4-9.9 8.1-17.7 8.1-7.7 0-13.6-2.9-17.6-8.7-1.2 2.2-2.1 4.7-2.9 7.6zm9.1-20.5c0 5.4 2.1 8.1 6.3 8.1 2.3 0 4-1 5.2-2.9 1.2-2 1.8-6 1.8-12.1 0-6.7-.7-10.8-2.1-12.5-1.4-1.7-3.1-2.6-5.1-2.6-1.6 0-3 .6-4.3 1.8-1.3 1.2-1.9 3-1.9 5.3v14.9zm110.8 20.5h-24.7l-12.7-27.8-7.6 10.8v17h-21.3V19.6h21.3V50l20.3-30.5h20.3l-18.6 27 23 46.8zm26.8-76v17.1h-21.5V17.3h21.5zm0 21.1v54.9h-21.5V38.4h21.5zm45.3 0v14h-11v20.2c0 2.8.5 4.4 1.6 4.9 1 .5 2.1.8 3.2.8 1.7 0 3.8-.3 6.2-.9v15.3c-4.2.8-8.4 1.2-12.5 1.2-6.6 0-11.5-1.4-14.6-4.3-3.1-2.8-4.7-7.4-4.7-13.6l.1-6.4V52.3H404v-14h8.2l.3-17.9 20.5-.3v18.2h11z" fill="#fff"/><path class="st1" d="M64.7 29.3h-.4.4zM57.3 38c.7 0 1.3.1 2 .2 2.1.5 3.1 2.5 2.4 4.8l-1.5 5.1c-.1.4-.3.5-.6.6-1.2.3-2.4.7-3.6 1-1.7.5-3.5 1-5.3 1.5.2.2.4.3.5.5 2.1 1.9 4.3 3.7 6.4 5.6.4.3.7.4 1.2.3 2.6-.4 5.2-.9 7.8-1.3.4-.1.6-.2.7-.6 1.4-3.2 2.7-6.4 4.1-9.6.1-.2.2-.3.3-.6l.3.6c1.4 3.2 2.8 6.4 4.1 9.6.1.2.3.5.5.5 2.7.5 5.4.9 8.1 1.4.3.1.6 0 .9-.2 2.2-2 4.4-3.9 6.6-5.9.1-.1.2-.2.3-.4-.1 0-.2-.1-.2-.1-2.8-.8-5.7-1.7-8.5-2.5-.4-.1-.5-.3-.7-.7-.3-1.2-.7-2.4-1.1-3.6-1.5-5-3.1-10-5.3-14.8-.5-1-1.1-2-1.7-2.9-.5-.8-1.1-1.1-2-1.1h-8c-1.3 0-2.3.5-3.1 1.6l-.6.9c-1 1.5-2.3 2.3-3.9 2.4-.6 0-1.2 0-1.8.2-3 .6-4.7 3.9-5.2 7.3h.4c2.3.2 4.4.1 6.5.2zm7.4-8.7h-.4.4zm14.9 50.1c-.2 0-.5.1-.7.2-1.2.9-2.4 1.8-3.7 2.7L71.6 85c-2.4-1.8-4.8-3.6-7.2-5.3-.2-.2-.6-.3-.9-.3H38.6v.2c0 .1.1.1.1.2 2.6 3.5 5.5 6.7 9 9 1.8 1.1 3.7 1.9 5.8 1.9h35.9c.6 0 1.2-.1 1.9-.2 1.9-.4 3.6-1.4 5.3-2.5 2.6-1.9 4.7-4.2 6.8-6.8.4-.5.8-1 1.2-1.6h-.5c-8.1-.2-16.3-.2-24.5-.2zm-35-16.7h.6c.8-3.7 1.5-7.4 2.3-11.1h-31v.3c1.2 2.9 2.6 5.7 4.7 7.9 1.9 2 4.2 3.1 6.8 3 5.6-.1 11.1-.1 16.6-.1zm82.2-11.1H95.9c.8 3.7 1.5 7.4 2.3 11.1h17.3c2.4 0 4.5-.9 6.4-2.6 2.1-2.3 3.7-5.2 4.9-8.5 0 .1 0 .1 0 0zM59.9 76.8h.6l-.4-.4c-4.7-3.5-9.3-7-14-10.5-.3-.2-.6-.3-.9-.3H26.4c.1.2.1.4.2.5 1.7 3.1 3.7 5.8 6.2 8 2 1.7 4.3 2.7 6.9 2.7h20.2zM98 65.6c-.2 0-.5.1-.7.3l-8.4 6.3-6 4.5v.1h20.9c2.1 0 4-.7 5.8-2 3.1-2.3 5.3-5.4 7.2-8.9 0-.1.1-.2.1-.3H98zm-50.6-1.1c5 3.5 10.1 7 15.1 10.5.1.1.3.2.4.3 0-.1.1-.2.1-.2.4-2.7.8-5.3 1.2-8 .1-.5 0-.8-.4-1.1-3.4-3.1-6.8-6.2-10.3-9.3-1.4-1.3-2.8-2.5-4.2-3.8-.8 3.8-1.5 7.4-2.3 11.1-.1.3.2.4.4.5zm31.8 2.3c.1 1 .3 2 .4 3.1.3 1.8.5 3.5.8 5.3.1-.1.2-.1.3-.2 5.1-3.7 10.3-7.3 15.5-11 .3-.2.3-.4.2-.7-.4-1.9-.8-3.9-1.3-5.8-.3-1.5-.7-3.1-1-4.7-.1 0-.1.1-.2.1-4.9 4.4-9.7 8.9-14.6 13.3 0 .1-.1.4-.1.6z"/><path class="st1" d="M71.5 72.8c-2.2 1.3-4.3 2.6-6.5 4 .2.1.3.2.4.3 1.8 1.2 3.6 2.4 5.3 3.7.7.5 1.2.5 2 0 1.8-1.4 3.7-2.7 5.7-4.1l-.2-.2c-2.1-1.3-4.2-2.5-6.3-3.8-.1 0-.3 0-.4.1z"/></svg>